<svg width="95" height="57" viewBox="0 0 95 57" fill="none" xmlns="http://www.w3.org/2000/svg">
<path d="M14.2698 1.78776C8.48475 4.02543 4.9173 7.00898 2.02477 11.8573C0.0964176 14.99 0 16.4818 0 34.6069C0 51.3148 0.192835 54 1.44626 54C2.69969 54 2.98894 51.091 3.37462 33.861C3.8567 11.7081 3.95312 11.5589 10.3167 6.8598C24.3936 -3.58264 47.6303 4.1746 47.7267 19.3907C47.7267 30.2807 34.8067 38.8584 21.694 36.5462C17.0659 35.7257 14.077 36.6208 16.8731 37.9634C22.0796 40.4994 33.8426 39.2314 40.3025 35.4274C55.2473 26.6259 54.3795 10.0671 38.6634 2.53365C34.6139 0.668924 32.6856 0.221391 26.6113 0.0722129C20.2477 -0.151554 18.6086 0.0722129 14.2698 1.78776Z" fill="black"/>
<path d="M8.84659 54.1534C8.43182 54.1534 8.0554 54.0753 7.71733 53.919C7.37926 53.7599 7.1108 53.5312 6.91193 53.233C6.71307 52.9318 6.61364 52.5682 6.61364 52.142C6.61364 51.767 6.6875 51.4631 6.83523 51.2301C6.98295 50.9943 7.1804 50.8097 7.42756 50.6761C7.67472 50.5426 7.94744 50.4432 8.24574 50.3778C8.54688 50.3097 8.84943 50.2557 9.15341 50.2159C9.55114 50.1648 9.87358 50.1264 10.1207 50.1009C10.3707 50.0724 10.5526 50.0256 10.6662 49.9602C10.7827 49.8949 10.8409 49.7812 10.8409 49.6193V49.5852C10.8409 49.1648 10.7259 48.8381 10.4957 48.6051C10.2685 48.3722 9.9233 48.2557 9.46023 48.2557C8.98011 48.2557 8.60369 48.3608 8.33097 48.571C8.05824 48.7812 7.86648 49.0057 7.75568 49.2443L6.80114 48.9034C6.97159 48.5057 7.19886 48.196 7.48295 47.9744C7.76989 47.75 8.08239 47.5937 8.42045 47.5057C8.76136 47.4148 9.09659 47.3693 9.42614 47.3693C9.63636 47.3693 9.87784 47.3949 10.1506 47.446C10.4261 47.4943 10.6918 47.5952 10.9474 47.7486C11.206 47.902 11.4205 48.1335 11.5909 48.4432C11.7614 48.7528 11.8466 49.1676 11.8466 49.6875V54H10.8409V53.1136H10.7898C10.7216 53.2557 10.608 53.4077 10.4489 53.5696C10.2898 53.7315 10.0781 53.8693 9.81392 53.983C9.54972 54.0966 9.22727 54.1534 8.84659 54.1534ZM9 53.25C9.39773 53.25 9.73295 53.1719 10.0057 53.0156C10.2813 52.8594 10.4886 52.6577 10.6278 52.4105C10.7699 52.1634 10.8409 51.9034 10.8409 51.6307V50.7102C10.7983 50.7614 10.7045 50.8082 10.5597 50.8509C10.4176 50.8906 10.2528 50.9261 10.0653 50.9574C9.88068 50.9858 9.70028 51.0114 9.52415 51.0341C9.35085 51.054 9.21023 51.071 9.10227 51.0852C8.84091 51.1193 8.59659 51.1747 8.36932 51.2514C8.14489 51.3253 7.96307 51.4375 7.82386 51.5881C7.6875 51.7358 7.61932 51.9375 7.61932 52.1932C7.61932 52.5426 7.74858 52.8068 8.0071 52.9858C8.26847 53.1619 8.59943 53.25 9 53.25ZM16.5288 47.4545V48.3068H13.1367V47.4545H16.5288ZM14.1254 45.8864H15.131V52.125C15.131 52.4091 15.1722 52.6222 15.2546 52.7642C15.3398 52.9034 15.4478 52.9972 15.5785 53.0455C15.712 53.0909 15.8526 53.1136 16.0004 53.1136C16.1112 53.1136 16.2021 53.108 16.2731 53.0966C16.3441 53.0824 16.4009 53.071 16.4435 53.0625L16.6481 53.9659C16.5799 53.9915 16.4847 54.017 16.3626 54.0426C16.2404 54.071 16.0856 54.0852 15.8981 54.0852C15.614 54.0852 15.3356 54.0241 15.0629 53.902C14.793 53.7798 14.5685 53.5938 14.3896 53.3438C14.2134 53.0938 14.1254 52.7784 14.1254 52.3977V45.8864ZM20.8881 47.4545V48.3068H17.4961V47.4545H20.8881ZM18.4847 45.8864H19.4904V52.125C19.4904 52.4091 19.5316 52.6222 19.614 52.7642C19.6992 52.9034 19.8072 52.9972 19.9379 53.0455C20.0714 53.0909 20.212 53.1136 20.3597 53.1136C20.4705 53.1136 20.5614 53.108 20.6325 53.0966C20.7035 53.0824 20.7603 53.071 20.8029 53.0625L21.0075 53.9659C20.9393 53.9915 20.8441 54.017 20.7219 54.0426C20.5998 54.071 20.445 54.0852 20.2575 54.0852C19.9734 54.0852 19.695 54.0241 19.4222 53.902C19.1523 53.7798 18.9279 53.5938 18.7489 53.3438C18.5728 53.0938 18.4847 52.7784 18.4847 52.3977V45.8864ZM22.4009 54V47.4545H23.4066V54H22.4009ZM22.9123 46.3636C22.7163 46.3636 22.5472 46.2969 22.4052 46.1634C22.266 46.0298 22.1964 45.8693 22.1964 45.6818C22.1964 45.4943 22.266 45.3338 22.4052 45.2003C22.5472 45.0668 22.7163 45 22.9123 45C23.1083 45 23.2759 45.0668 23.4151 45.2003C23.5572 45.3338 23.6282 45.4943 23.6282 45.6818C23.6282 45.8693 23.5572 46.0298 23.4151 46.1634C23.2759 46.2969 23.1083 46.3636 22.9123 46.3636ZM28.6236 56.4545V47.4545H29.5952V48.4943H29.7145C29.7884 48.3807 29.8906 48.2358 30.0213 48.0597C30.1548 47.8807 30.3452 47.7216 30.5923 47.5824C30.8423 47.4403 31.1804 47.3693 31.6065 47.3693C32.1577 47.3693 32.6435 47.5071 33.0639 47.7827C33.4844 48.0582 33.8125 48.4489 34.0483 48.9545C34.2841 49.4602 34.402 50.0568 34.402 50.7443C34.402 51.4375 34.2841 52.0384 34.0483 52.5469C33.8125 53.0526 33.4858 53.4446 33.0682 53.723C32.6506 53.9986 32.169 54.1364 31.6236 54.1364C31.2031 54.1364 30.8665 54.0668 30.6136 53.9276C30.3608 53.7855 30.1662 53.625 30.0298 53.446C29.8935 53.2642 29.7884 53.1136 29.7145 52.9943H29.6293V56.4545H28.6236ZM29.6122 50.7273C29.6122 51.2216 29.6847 51.6577 29.8295 52.0355C29.9744 52.4105 30.1861 52.7045 30.4645 52.9176C30.7429 53.1278 31.0838 53.233 31.4872 53.233C31.9077 53.233 32.2585 53.1222 32.5398 52.9006C32.8239 52.6761 33.0369 52.375 33.179 51.9972C33.3239 51.6165 33.3963 51.1932 33.3963 50.7273C33.3963 50.267 33.3253 49.8523 33.1832 49.483C33.044 49.1108 32.8324 48.8168 32.5483 48.6009C32.267 48.3821 31.9134 48.2727 31.4872 48.2727C31.0781 48.2727 30.7344 48.3764 30.456 48.5838C30.1776 48.7884 29.9673 49.0753 29.8253 49.4446C29.6832 49.8111 29.6122 50.2386 29.6122 50.7273ZM38.6804 54.1364C38.0497 54.1364 37.5057 53.9972 37.0483 53.7188C36.5938 53.4375 36.2429 53.0455 35.9957 52.5426C35.7514 52.0369 35.6293 51.4489 35.6293 50.7784C35.6293 50.108 35.7514 49.517 35.9957 49.0057C36.2429 48.4915 36.5866 48.0909 37.027 47.804C37.4702 47.5142 37.9872 47.3693 38.5781 47.3693C38.919 47.3693 39.2557 47.4261 39.5881 47.5398C39.9205 47.6534 40.223 47.8381 40.4957 48.0938C40.7685 48.3466 40.9858 48.6818 41.1477 49.0994C41.3097 49.517 41.3906 50.0312 41.3906 50.642V51.0682H36.3452V50.1989H40.3679C40.3679 49.8295 40.294 49.5 40.1463 49.2102C40.0014 48.9205 39.794 48.6918 39.5241 48.5241C39.2571 48.3565 38.9418 48.2727 38.5781 48.2727C38.1776 48.2727 37.831 48.3722 37.5384 48.571C37.2486 48.767 37.0256 49.0227 36.8693 49.3381C36.7131 49.6534 36.6349 49.9915 36.6349 50.3523V50.9318C36.6349 51.4261 36.7202 51.8452 36.8906 52.1889C37.0639 52.5298 37.304 52.7898 37.6108 52.9688C37.9176 53.1449 38.2741 53.233 38.6804 53.233C38.9446 53.233 39.1832 53.196 39.3963 53.1222C39.6122 53.0455 39.7983 52.9318 39.9545 52.7812C40.1108 52.6278 40.2315 52.4375 40.3168 52.2102L41.2884 52.483C41.1861 52.8125 41.0142 53.1023 40.7727 53.3523C40.5313 53.5994 40.233 53.7926 39.8778 53.9318C39.5227 54.0682 39.1236 54.1364 38.6804 54.1364ZM43.9261 45.2727V54H42.9205V45.2727H43.9261ZM48.4272 54.1364C47.8363 54.1364 47.3178 53.9957 46.8718 53.7145C46.4286 53.4332 46.082 53.0398 45.832 52.5341C45.5849 52.0284 45.4613 51.4375 45.4613 50.7614C45.4613 50.0795 45.5849 49.4844 45.832 48.9759C46.082 48.4673 46.4286 48.0724 46.8718 47.7912C47.3178 47.5099 47.8363 47.3693 48.4272 47.3693C49.0181 47.3693 49.5352 47.5099 49.9783 47.7912C50.4244 48.0724 50.771 48.4673 51.0181 48.9759C51.2681 49.4844 51.3931 50.0795 51.3931 50.7614C51.3931 51.4375 51.2681 52.0284 51.0181 52.5341C50.771 53.0398 50.4244 53.4332 49.9783 53.7145C49.5352 53.9957 49.0181 54.1364 48.4272 54.1364ZM48.4272 53.233C48.8761 53.233 49.2454 53.1179 49.5352 52.8878C49.8249 52.6577 50.0394 52.3551 50.1786 51.9801C50.3178 51.6051 50.3874 51.1989 50.3874 50.7614C50.3874 50.3239 50.3178 49.9162 50.1786 49.5384C50.0394 49.1605 49.8249 48.8551 49.5352 48.6222C49.2454 48.3892 48.8761 48.2727 48.4272 48.2727C47.9783 48.2727 47.609 48.3892 47.3192 48.6222C47.0295 48.8551 46.815 49.1605 46.6758 49.5384C46.5366 49.9162 46.467 50.3239 46.467 50.7614C46.467 51.1989 46.5366 51.6051 46.6758 51.9801C46.815 52.3551 47.0295 52.6577 47.3192 52.8878C47.609 53.1179 47.9783 53.233 48.4272 53.233ZM56.3033 54V47.4545H57.2749V48.4773H57.3601C57.4964 48.1278 57.7166 47.8565 58.0206 47.6634C58.3246 47.4673 58.6896 47.3693 59.1158 47.3693C59.5476 47.3693 59.907 47.4673 60.1939 47.6634C60.4837 47.8565 60.7095 48.1278 60.8714 48.4773H60.9396C61.1072 48.1392 61.3587 47.8707 61.6939 47.6719C62.0291 47.4702 62.4311 47.3693 62.8999 47.3693C63.4851 47.3693 63.9638 47.5526 64.3359 47.919C64.7081 48.2827 64.8942 48.8494 64.8942 49.6193V54H63.8885V49.6193C63.8885 49.1364 63.7564 48.7912 63.4922 48.5838C63.228 48.3764 62.9169 48.2727 62.5589 48.2727C62.0987 48.2727 61.7422 48.4119 61.4893 48.6903C61.2365 48.9659 61.1101 49.3153 61.1101 49.7386V54H60.0874V49.517C60.0874 49.1449 59.9666 48.8452 59.7251 48.6179C59.4837 48.3878 59.1726 48.2727 58.7919 48.2727C58.5305 48.2727 58.2862 48.3423 58.0589 48.4815C57.8345 48.6207 57.6527 48.8139 57.5135 49.0611C57.3771 49.3054 57.3089 49.5881 57.3089 49.9091V54H56.3033ZM70.858 51.3239V47.4545H71.8636V54H70.858V52.892H70.7898C70.6364 53.2244 70.3977 53.5071 70.0739 53.7401C69.75 53.9702 69.3409 54.0852 68.8466 54.0852C68.4375 54.0852 68.0739 53.9957 67.7557 53.8168C67.4375 53.6349 67.1875 53.3622 67.0057 52.9986C66.8239 52.6321 66.733 52.1705 66.733 51.6136V47.4545H67.7386V51.5455C67.7386 52.0227 67.8722 52.4034 68.1392 52.6875C68.4091 52.9716 68.7528 53.1136 69.1705 53.1136C69.4205 53.1136 69.6747 53.0497 69.9332 52.9219C70.1946 52.794 70.4134 52.598 70.5895 52.3338C70.7685 52.0696 70.858 51.733 70.858 51.3239ZM74.7113 50.0625V54H73.7056V47.4545H74.6772V48.4773H74.7624C74.9158 48.1449 75.1488 47.8778 75.4613 47.6761C75.7738 47.4716 76.1772 47.3693 76.6715 47.3693C77.1147 47.3693 77.5025 47.4602 77.8349 47.642C78.1673 47.821 78.4258 48.0938 78.6104 48.4602C78.7951 48.8239 78.8874 49.2841 78.8874 49.8409V54H77.8817V49.9091C77.8817 49.3949 77.7482 48.9943 77.4812 48.7074C77.2141 48.4176 76.8477 48.2727 76.3817 48.2727C76.0607 48.2727 75.7738 48.3423 75.521 48.4815C75.271 48.6207 75.0735 48.8239 74.9286 49.0909C74.7837 49.358 74.7113 49.6818 74.7113 50.0625ZM83.1967 54.1364C82.6513 54.1364 82.1697 53.9986 81.7521 53.723C81.3345 53.4446 81.0078 53.0526 80.772 52.5469C80.5362 52.0384 80.4183 51.4375 80.4183 50.7443C80.4183 50.0568 80.5362 49.4602 80.772 48.9545C81.0078 48.4489 81.3359 48.0582 81.7564 47.7827C82.1768 47.5071 82.6626 47.3693 83.2138 47.3693C83.6399 47.3693 83.9766 47.4403 84.2237 47.5824C84.4737 47.7216 84.6641 47.8807 84.7947 48.0597C84.9283 48.2358 85.032 48.3807 85.1058 48.4943H85.1911V45.2727H86.1967V54H85.2251V52.9943H85.1058C85.032 53.1136 84.9268 53.2642 84.7905 53.446C84.6541 53.625 84.4595 53.7855 84.2067 53.9276C83.9538 54.0668 83.6172 54.1364 83.1967 54.1364ZM83.3331 53.233C83.7365 53.233 84.0774 53.1278 84.3558 52.9176C84.6342 52.7045 84.8459 52.4105 84.9908 52.0355C85.1357 51.6577 85.2081 51.2216 85.2081 50.7273C85.2081 50.2386 85.1371 49.8111 84.995 49.4446C84.853 49.0753 84.6428 48.7884 84.3643 48.5838C84.0859 48.3764 83.7422 48.2727 83.3331 48.2727C82.907 48.2727 82.5518 48.3821 82.2678 48.6009C81.9865 48.8168 81.7749 49.1108 81.6328 49.483C81.4936 49.8523 81.424 50.267 81.424 50.7273C81.424 51.1932 81.495 51.6165 81.6371 51.9972C81.782 52.375 81.995 52.6761 82.2763 52.9006C82.5604 53.1222 82.9126 53.233 83.3331 53.233ZM90.8374 54.1364C90.2464 54.1364 89.728 53.9957 89.282 53.7145C88.8388 53.4332 88.4922 53.0398 88.2422 52.5341C87.995 52.0284 87.8714 51.4375 87.8714 50.7614C87.8714 50.0795 87.995 49.4844 88.2422 48.9759C88.4922 48.4673 88.8388 48.0724 89.282 47.7912C89.728 47.5099 90.2464 47.3693 90.8374 47.3693C91.4283 47.3693 91.9453 47.5099 92.3885 47.7912C92.8345 48.0724 93.1811 48.4673 93.4283 48.9759C93.6783 49.4844 93.8033 50.0795 93.8033 50.7614C93.8033 51.4375 93.6783 52.0284 93.4283 52.5341C93.1811 53.0398 92.8345 53.4332 92.3885 53.7145C91.9453 53.9957 91.4283 54.1364 90.8374 54.1364ZM90.8374 53.233C91.2862 53.233 91.6555 53.1179 91.9453 52.8878C92.2351 52.6577 92.4496 52.3551 92.5888 51.9801C92.728 51.6051 92.7976 51.1989 92.7976 50.7614C92.7976 50.3239 92.728 49.9162 92.5888 49.5384C92.4496 49.1605 92.2351 48.8551 91.9453 48.6222C91.6555 48.3892 91.2862 48.2727 90.8374 48.2727C90.3885 48.2727 90.0192 48.3892 89.7294 48.6222C89.4396 48.8551 89.2251 49.1605 89.0859 49.5384C88.9467 49.9162 88.8771 50.3239 88.8771 50.7614C88.8771 51.1989 88.9467 51.6051 89.0859 51.9801C89.2251 52.3551 89.4396 52.6577 89.7294 52.8878C90.0192 53.1179 90.3885 53.233 90.8374 53.233Z" fill="black"/>
</svg>
